<svg width="31" height="31" viewBox="0 0 31 31" fill="none" xmlns="http://www.w3.org/2000/svg">
<path d="M24.5876 7.49605C22.9251 6.72105 21.1251 6.15855 19.2501 5.83355C19.2337 5.83303 19.2174 5.83612 19.2022 5.84259C19.1871 5.84907 19.1736 5.85879 19.1626 5.87105C18.9376 6.28355 18.6751 6.82105 18.5001 7.23355C16.5114 6.93355 14.4889 6.93355 12.5001 7.23355C12.3251 6.80855 12.0626 6.28355 11.8251 5.87105C11.8126 5.84605 11.7751 5.83355 11.7376 5.83355C9.86265 6.15855 8.07515 6.72105 6.40015 7.49605C6.38765 7.49605 6.37515 7.50855 6.36265 7.52105C2.96265 12.6086 2.02515 17.5586 2.48765 22.4586C2.48765 22.4836 2.50015 22.5086 2.52515 22.5211C4.77515 24.1711 6.93765 25.1711 9.07515 25.8336C9.11265 25.8461 9.15015 25.8336 9.16265 25.8086C9.66265 25.1211 10.1126 24.3961 10.5001 23.6336C10.5251 23.5836 10.5001 23.5336 10.4501 23.5211C9.73765 23.2461 9.06265 22.9211 8.40015 22.5461C8.35015 22.5211 8.35015 22.4461 8.38765 22.4086C8.52515 22.3086 8.66265 22.1961 8.80015 22.0961C8.82515 22.0711 8.86265 22.0711 8.88765 22.0836C13.1876 24.0461 17.8251 24.0461 22.0751 22.0836C22.1001 22.0711 22.1376 22.0711 22.1626 22.0961C22.3001 22.2086 22.4376 22.3086 22.5751 22.4211C22.6251 22.4586 22.6251 22.5336 22.5626 22.5586C21.9126 22.9461 21.2251 23.2586 20.5126 23.5336C20.4626 23.5461 20.4501 23.6086 20.4626 23.6461C20.8626 24.4086 21.3126 25.1336 21.8001 25.8211C21.8376 25.8336 21.8751 25.8461 21.9126 25.8336C24.0626 25.1711 26.2251 24.1711 28.4751 22.5211C28.5001 22.5086 28.5126 22.4836 28.5126 22.4586C29.0626 16.7961 27.6001 11.8836 24.6376 7.52105C24.6251 7.50855 24.6126 7.49605 24.5876 7.49605ZM11.1501 19.4711C9.86265 19.4711 8.78765 18.2836 8.78765 16.8211C8.78765 15.3586 9.83765 14.1711 11.1501 14.1711C12.4751 14.1711 13.5251 15.3711 13.5126 16.8211C13.5126 18.2836 12.4626 19.4711 11.1501 19.4711ZM19.8626 19.4711C18.5751 19.4711 17.5001 18.2836 17.5001 16.8211C17.5001 15.3586 18.5501 14.1711 19.8626 14.1711C21.1876 14.1711 22.2376 15.3711 22.2251 16.8211C22.2251 18.2836 21.1876 19.4711 19.8626 19.4711Z" fill="black"/>
</svg>

