<svg width="19" height="19" viewBox="0 0 19 19" fill="none" xmlns="http://www.w3.org/2000/svg">
<path d="M16.5 0.166504C17.0304 0.166504 17.5391 0.377218 17.9142 0.75229C18.2893 1.12736 18.5 1.63607 18.5 2.1665V16.1665C18.5 16.6969 18.2893 17.2056 17.9142 17.5807C17.5391 17.9558 17.0304 18.1665 16.5 18.1665H2.5C1.96957 18.1665 1.46086 17.9558 1.08579 17.5807C0.710714 17.2056 0.5 16.6969 0.5 16.1665V2.1665C0.5 1.63607 0.710714 1.12736 1.08579 0.75229C1.46086 0.377218 1.96957 0.166504 2.5 0.166504H16.5ZM16 15.6665V10.3665C16 9.5019 15.6565 8.6727 15.0452 8.06134C14.4338 7.44997 13.6046 7.1065 12.74 7.1065C11.89 7.1065 10.9 7.6265 10.42 8.4065V7.2965H7.63V15.6665H10.42V10.7365C10.42 9.9665 11.04 9.3365 11.81 9.3365C12.1813 9.3365 12.5374 9.484 12.7999 9.74655C13.0625 10.0091 13.21 10.3652 13.21 10.7365V15.6665H16ZM4.38 5.7265C4.82556 5.7265 5.25288 5.5495 5.56794 5.23444C5.883 4.91938 6.06 4.49207 6.06 4.0465C6.06 3.1165 5.31 2.3565 4.38 2.3565C3.93178 2.3565 3.50193 2.53456 3.18499 2.85149C2.86805 3.16843 2.69 3.59829 2.69 4.0465C2.69 4.9765 3.45 5.7265 4.38 5.7265ZM5.77 15.6665V7.2965H3V15.6665H5.77Z" fill="black"/>
</svg>

