<?xml version="1.0" encoding="UTF-8" standalone="no"?>
<svg version="1.1" xmlns="http://www.w3.org/2000/svg" style="font-family: Arial; " width="430" height="280" viewBox="0 0 430 280"><title>Wizard data</title><defs><clipPath id="chart-clipPath-exact"><rect height="219" width="382"></rect></clipPath><clipPath id="chart-clipPath-buffer"><rect x="-10" y="-10" height="239" width="402"></rect></clipPath></defs><g class="scaler"><rect width="430" height="280" fill="rgb(255, 255, 255)" fill-opacity="0"></rect><g class="canvas" transform="translate(43,31)"><g class="grid"><g class="axis-grid x" transform="translate(0,0)"></g><g class="axis-grid y" transform="translate(0,219)"><line class="grid" x1="0" x2="0" y1="0" y2="-219" style="stroke: #666666; stroke-opacity: 0.3; stroke-width: 1px; " transform="translate(0,0)"></line><line class="grid" x1="0" x2="0" y1="0" y2="-219" style="stroke: #666666; stroke-opacity: 0.3; stroke-width: 1px; " transform="translate(86.81818181818181,0)"></line><line class="grid" x1="0" x2="0" y1="0" y2="-219" style="stroke: #666666; stroke-opacity: 0.3; stroke-width: 1px; " transform="translate(173.63636363636363,0)"></line><line class="grid" x1="0" x2="0" y1="0" y2="-219" style="stroke: #666666; stroke-opacity: 0.3; stroke-width: 1px; " transform="translate(260.45454545454544,0)"></line><line class="grid" x1="0" x2="0" y1="0" y2="-219" style="stroke: #666666; stroke-opacity: 0.3; stroke-width: 1px; " transform="translate(347.27272727272725,0)"></line></g><g class="axis-grid y2" transform="translate(0,0.5)"></g><g class="axis-grid x2" transform="translate(0,1)"></g></g><rect class="trigger-layer" height="270" width="420" opacity="0"></rect><g class="chart"><g class="series s0"><g class="bar"><rect fill="rgb(249, 115, 22)" opacity="1" x="0" width="119.8090909090909" y="166.85714285714283" height="41.714285714285715" clip-path="url(#chart-clipPath-exact)"></rect></g><g class="bar"><rect fill="rgb(249, 115, 22)" opacity="1" x="0" width="234.4090909090909" y="114.71428571428571" height="41.714285714285715" clip-path="url(#chart-clipPath-exact)"></rect></g><g class="bar"><rect fill="rgb(249, 115, 22)" opacity="1" x="0" width="347.27272727272725" y="62.57142857142857" height="41.714285714285715" clip-path="url(#chart-clipPath-exact)"></rect></g><g class="bar"><rect fill="rgb(249, 115, 22)" opacity="1" x="0" width="366.3727272727272" y="10.428571428571429" height="41.714285714285715" clip-path="url(#chart-clipPath-exact)"></rect></g></g></g><g class="axes"><g class="axis-labels"></g><g class="axis left" transform="translate(0,0)"><g class="tick major" style="opacity: 1; display: block; " transform="translate(0,187.7142857142857)"><line x2="-6" y2="0"></line><text x="-9" y="0" dy="7" style="fill: #666666; fill-opacity: 1; font-family: Arial; font-size: 14px; text-anchor: end; " transform="rotate(0, -9, 0)translate(0,0)" data-org-x="-9" data-org-y="0">Rust</text></g><g class="tick major" style="opacity: 1; display: block; " transform="translate(0,135.57142857142856)"><line x2="-6" y2="0"></line><text x="-9" y="0" dy="7" style="fill: #666666; fill-opacity: 1; font-family: Arial; font-size: 14px; text-anchor: end; " transform="rotate(0, -9, 0)translate(0,0)" data-org-x="-9" data-org-y="0">Go</text></g><g class="tick major" style="opacity: 1; display: block; " transform="translate(0,83.42857142857143)"><line x2="-6" y2="0"></line><text x="-9" y="0" dy="7" style="fill: #666666; fill-opacity: 1; font-family: Arial; font-size: 14px; text-anchor: end; " transform="rotate(0, -9, 0)translate(0,0)" data-org-x="-9" data-org-y="0">Java</text></g><g class="tick major" style="opacity: 1; display: block; " transform="translate(0,31.285714285714285)"><line x2="-6" y2="0"></line><text x="-9" y="0" dy="7" style="fill: #666666; fill-opacity: 1; font-family: Arial; font-size: 14px; text-anchor: end; " transform="rotate(0, -9, 0)translate(0,0)" data-org-x="-9" data-org-y="0">.Net</text></g><path class="domain" d="M0,0H0V219H0" stroke-width="0" fill="none" stroke="rgb(188, 188, 188)" stroke-opacity="1"></path></g><g class="axis bottom" transform="translate(0,219)"><g class="tick major" style="opacity: 1; display: block; " transform="translate(0,0)"><line y2="6" x2="0"></line><text y="9" x="0" dy="7" style="fill: #666666; fill-opacity: 1; font-family: Arial; font-size: 14px; text-anchor: middle; " transform="rotate(0, 0, 9)translate(0,0)" data-org-x="0" data-org-y="9">0</text></g><g class="tick major" style="opacity: 1; display: block; " transform="translate(86.81818181818181,0)"><line y2="6" x2="0"></line><text y="9" x="0" dy="7" style="fill: #666666; fill-opacity: 1; font-family: Arial; font-size: 14px; text-anchor: middle; " transform="rotate(0, 0, 9)translate(0,0)" data-org-x="0" data-org-y="9">50</text></g><g class="tick major" style="opacity: 1; display: block; " transform="translate(173.63636363636363,0)"><line y2="6" x2="0"></line><text y="9" x="0" dy="7" style="fill: #666666; fill-opacity: 1; font-family: Arial; font-size: 14px; text-anchor: middle; " transform="rotate(0, 0, 9)translate(0,0)" data-org-x="0" data-org-y="9">100</text></g><g class="tick major" style="opacity: 1; display: block; " transform="translate(260.45454545454544,0)"><line y2="6" x2="0"></line><text y="9" x="0" dy="7" style="fill: #666666; fill-opacity: 1; font-family: Arial; font-size: 14px; text-anchor: middle; " transform="rotate(0, 0, 9)translate(0,0)" data-org-x="0" data-org-y="9">150</text></g><g class="tick major" style="opacity: 1; display: block; " transform="translate(347.27272727272725,0)"><line y2="6" x2="0"></line><text y="9" x="0" dy="7" style="fill: #666666; fill-opacity: 1; font-family: Arial; font-size: 14px; text-anchor: middle; " transform="rotate(0, 0, 9)translate(0,0)" data-org-x="0" data-org-y="9">200</text></g><path class="domain" d="M0,0V0H382V0" stroke-width="0" fill="none" stroke="rgb(188, 188, 188)" stroke-opacity="1"></path><path class="filler" d="M0,0V0H0V0" stroke-width="0" fill="none" stroke="rgb(188, 188, 188)" stroke-opacity="1"></path></g></g></g><g class="legend" transform="translate(195.05067253112793,5)"><g class="row" transform="translate(0,0)"><text class="key" style="font-size: 14px; font-family: Arial; fill: #666666; fill-opacity: 1; " dx="28" dy="14">ms</text><path class="shape" d="M0,7.898654169668588A7.898654169668588,7.898654169668588 0 1,1 0,-7.898654169668588A7.898654169668588,7.898654169668588 0 1,1 0,7.898654169668588Z" style="fill: #f97316; fill-opacity: 1; " transform="translate(14,9.24)"></path></g></g></g></svg>